<svg xmlns="http://www.w3.org/2000/svg" viewBox="0 0 59 42.66"><defs><style>.cls-1{fill:#c4c9c5;}</style></defs><title>Asset 10</title><g id="Layer_2" data-name="Layer 2"><g id="Layer_1-2" data-name="Layer 1"><ellipse class="cls-1" cx="31.33" cy="22.8" rx="24.93" ry="16.43"/><path class="cls-1" d="M20.58,13.73c0,4.06-4.3,7.36-9.6,7.36s-9.61-1.48-9.61-7.36c0-4.06,5-8.15,10.21-9.26S20.58,9.67,20.58,13.73Z"/><path class="cls-1" d="M38.6,8.42c2.32,4.74-4.19,6.78-12.53,6.78s-15.4-4.32-14.49-6.78C13.32,3.77,16.36,0,24.7,0S36.5,4.12,38.6,8.42Z"/><path class="cls-1" d="M53.51,9.32c0,4.06-4.81,7.35-10.75,7.35S34,12.8,32,9.32C29.27,4.41,36.83,2,42.76,2S53.51,5.25,53.51,9.32Z"/><path class="cls-1" d="M31.73,33.64c0,4.61-3.23,8-10.17,8s-10-3.16-11.52-7.9c-1.43-4.36,2.17-8.39,9.11-8.39S31.73,29,31.73,33.64Z"/><ellipse class="cls-1" cx="12.35" cy="24.52" rx="12.35" ry="9.81"/><path class="cls-1" d="M50.77,34.08c0,4.74-6.25,8.58-14,8.58s-12-4.22-12-9,4.33-8.2,12-8.2S50.77,29.34,50.77,34.08Z"/><ellipse class="cls-1" cx="45.51" cy="25.74" rx="13.49" ry="8.58"/><ellipse class="cls-1" cx="50.54" cy="17.41" rx="7.55" ry="6.62"/></g></g></svg>