<svg xmlns="http://www.w3.org/2000/svg" viewBox="0 0 99 54"><defs><style>.cls-1{fill:#c4c9c5;}</style></defs><title>Asset 9</title><g id="Layer_2" data-name="Layer 2"><g id="Layer_1-2" data-name="Layer 1"><ellipse class="cls-1" cx="52.57" cy="28.86" rx="41.83" ry="20.79"/><ellipse class="cls-1" cx="18.42" cy="17.38" rx="16.12" ry="9.31"/><path class="cls-1" d="M66,11.17c0,6.34-8.27,8.07-22.26,8.07S14.58,11.79,16.12,8.69C19,2.8,27.45,0,41.44,0S66,4.83,66,11.17Z"/><path class="cls-1" d="M89.79,11.79c0,5.15-8.07,9.31-18,9.31s-14.77-4.9-18-9.31c-4.6-6.2,8.08-9.31,18-9.31S89.79,6.65,89.79,11.79Z"/><ellipse class="cls-1" cx="29.55" cy="41.59" rx="21.1" ry="10.55"/><ellipse class="cls-1" cx="20.72" cy="31.03" rx="20.72" ry="12.41"/><path class="cls-1" d="M85.19,43.14c0,6-10.48,10.86-23.41,10.86s-27.25-2.69-27.25-8.69,14.32-13,27.25-13S85.19,37.14,85.19,43.14Z"/><ellipse class="cls-1" cx="76.36" cy="32.59" rx="22.64" ry="10.86"/><ellipse class="cls-1" cx="84.8" cy="22.03" rx="12.66" ry="8.38"/></g></g></svg>