<svg xmlns="http://www.w3.org/2000/svg" viewBox="0 0 1920 497.93"><defs><style>.cls-1{fill:#e1baa3;}.cls-2{fill:#c4c9c5;}.cls-3{fill:#d7cfc4;}.cls-4{fill:#e2ac7a;}.cls-5{fill:#b28071;}.cls-6{fill:#9ca7ab;}</style></defs><title>Asset 3</title><g id="Layer_2" data-name="Layer 2"><g id="Layer_1-2" data-name="Layer 1"><path class="cls-1" d="M1920,494.93H0v-280c211-89,330.08-135.37,459-140,227.35-8.17,441,81,974,62,204.89-7.31,382.54,68.34,487,70Z"/><path class="cls-2" d="M1920,450.93H0v-87c95.34,6.87,253.51,15.51,440.32,11,391.93-9.46,500.56-153.52,844.68-162,131.06-3.23,361.11,85.67,635,122Z"/><path class="cls-3" d="M1920,497.93H0v-88c115,2.15,299.12,4,522.24-1,409.43-9.25,663.4-79.34,980.76-75,118.35,1.62,205,53.69,417,76Z"/><rect class="cls-2" x="416.59" y="54.95" width="27.22" height="26.44"/><polygon class="cls-2" points="430.21 44.02 416.61 55.14 443.81 55.14 430.21 44.02"/><polygon class="cls-3" points="477.72 74.44 443.72 81.4 443.72 54.95 477.72 48 477.72 74.44"/><polygon class="cls-4" points="477.72 48 443.81 55.14 430.21 44.02 465.67 35.33 477.72 48"/><rect class="cls-2" x="1401.66" y="429.27" width="16.3" height="17.84" transform="translate(2819.63 876.39) rotate(180)"/><polygon class="cls-2" points="1409.81 421.89 1417.95 429.4 1401.66 429.4 1409.81 421.89"/><polygon class="cls-5" points="1381.36 442.42 1401.72 447.12 1401.72 429.27 1381.36 424.58 1381.36 442.42"/><polygon class="cls-4" points="1381.36 424.58 1401.66 429.4 1409.81 421.89 1388.58 416.03 1381.36 424.58"/><circle class="cls-4" cx="1483.93" cy="17.57" r="17.57"/><rect class="cls-5" x="700.23" y="356.69" width="28.04" height="30.69" transform="translate(1428.49 744.07) rotate(180)"/><polygon class="cls-5" points="714.24 343.99 728.24 356.91 700.23 356.91 714.24 343.99"/><polygon class="cls-6" points="665.31 379.3 700.33 387.38 700.33 356.69 665.31 348.61 665.31 379.3"/><polygon class="cls-4" points="665.31 348.61 700.23 356.91 714.24 343.99 677.72 333.91 665.31 348.61"/></g></g></svg>