<svg xmlns="http://www.w3.org/2000/svg" xmlns:xlink="http://www.w3.org/1999/xlink" viewBox="0 0 185.05 63.61"><defs><style>.cls-1{fill:none;}.cls-2{fill:#e2ac7a;}.cls-3{isolation:isolate;}.cls-4{clip-path:url(#clip-path);}.cls-5{fill:#b28071;}</style><clipPath id="clip-path"><polygon class="cls-1" points="137.38 57.67 137.42 36.27 185.07 29.57 185.03 50.97 137.38 57.67"/></clipPath></defs><title>Asset 1</title><g id="Layer_2" data-name="Layer 2"><g id="Layer_1-2" data-name="Layer 1"><path class="cls-2" d="M50.76,0H73L71.25,8.1c-4.19.1-6,1.21-8.1,4.94L41.91,47.41A48.89,48.89,0,0,1,30.83,58.77,26.2,26.2,0,0,1,15,63.61c-9.41,0-15-3.72-15-10s5.31-11,12.29-11c4.57,0,7.46,2.15,7.46,5.5a7.64,7.64,0,0,1-2.15,5c-1.49,1.4-2.79,2-5.86,2.7a3.87,3.87,0,0,0,3.35,1.58c4.19,0,8.2-2.7,13-8.94L18.91,15.18c-1.77-6.24-2.33-6.89-5.59-7.08h-2L13.13,0h32L43.4,8.1c-4.09.19-4.84.56-4.84,2.24a6.78,6.78,0,0,0,.28,1.86l5,15.28,9.31-15.19a4.82,4.82,0,0,0,1-2.32c0-1.31-.84-1.59-5.22-1.87Z"/><path class="cls-2" d="M109.81,0h22.26L130.3,8.1c-4.19.1-6,1.21-8.1,4.94L101,47.41A48.89,48.89,0,0,1,89.88,58.77a26.18,26.18,0,0,1-15.83,4.84c-9.41,0-15-3.72-15-10s5.31-11,12.3-11c4.56,0,7.45,2.15,7.45,5.5a7.64,7.64,0,0,1-2.15,5c-1.49,1.4-2.79,2-5.86,2.7a3.87,3.87,0,0,0,3.35,1.58c4.19,0,8.2-2.7,13-8.94L78,15.18c-1.77-6.24-2.33-6.89-5.59-7.08h-2L72.18,0h32l-1.77,8.1c-4.09.19-4.84.56-4.84,2.24a6.78,6.78,0,0,0,.28,1.86l5,15.28,9.31-15.19a4.82,4.82,0,0,0,1-2.32c0-1.31-.84-1.59-5.22-1.87Z"/><path class="cls-2" d="M125.55,34.74,157,8.1h-6.7c-6.89.38-8,1.31-10.25,9.5h-9.22L134.59,0h46.2l-2,8.94L148,35.58h6.71c8.1-.37,9.59-1.86,11.64-11.08h9.22l-4.1,19.18H123.6Z"/><g class="cls-3"><g class="cls-4"><path class="cls-5" d="M144,35.35c-2.1.29-4,2.88-4.48,6.83-.25,2-.73,4.76-1.06,6.67a48.12,48.12,0,0,0-1.07,6.61c0,1.49.55,2.13,2.1,1.91s3.61-2,5.1-3.87a6.9,6.9,0,0,1-.1-1.17,13.46,13.46,0,0,1,.19-2.11c-1.15,1.81-2.31,3-3,3.13-.24,0-.38-.05-.38-.37,0-.72,1.26-5.89,2-8.78,2-4.33,2.53-5.81,2.53-7.07,0-1.46-.71-1.94-1.85-1.78"/><path class="cls-5" d="M149.23,52.42c-.49.06-1-.27-1-1.68,0-2.35,1.36-5.33,3-6.4a10.12,10.12,0,0,0-.59,3.42,10.35,10.35,0,0,0,.29,2.46c-.48,1.35-1.12,2.11-1.75,2.2m1-10.09c-2.4.34-4.89,3.9-5.58,7.89a13.46,13.46,0,0,0-.19,2.11,6.9,6.9,0,0,0,.1,1.17,2.78,2.78,0,0,0,3.28,2.58c1.86-.27,3.28-1.55,4.55-3.6a1.52,1.52,0,0,0,1.07.14,4,4,0,0,0,2-1,9.44,9.44,0,0,1-.1-1.47,9.92,9.92,0,0,1,.1-1.33,2.29,2.29,0,0,1-1.4.94.62.62,0,0,1-.53-.13,12.28,12.28,0,0,0,.83-4.19c0-1.29-.53-2.77-1.62-2.61a1.29,1.29,0,0,0-.93.53c0-.94-.88-1.14-1.57-1.05"/><path class="cls-5" d="M161.51,40.53c-2.56.36-5.48,4.3-6,8.31a9.92,9.92,0,0,0-.1,1.33,9.44,9.44,0,0,0,.1,1.47c.33,2.12,1.46,3.16,3.62,2.86,1.78-.25,3.85-2,5.36-3.79a8.27,8.27,0,0,1-.08-1.17,10,10,0,0,1,.25-2.16c-1.32,1.89-2.9,3.2-4.12,3.37-1,.14-1.43-.43-1.43-2,0-2.9.94-4.86,1.45-4.94.16,0,.34.15.34.56a9.06,9.06,0,0,1-.27,1.85,1.08,1.08,0,0,0,1.15.38c1.27-.18,2.48-1.81,2.48-3.65s-.9-2.66-2.71-2.4"/><path class="cls-5" d="M169,48.84c-.37,0-.69,0-.69-1.09a8.57,8.57,0,0,1,2.62-5.87L170,48a1.82,1.82,0,0,1-1.07.87m3.08-11a1.39,1.39,0,0,0-.94.5L171,40c-.13-.13-.31-.15-.69-.1-2.22.31-4.89,3.83-5.72,7.49a10,10,0,0,0-.25,2.16,8.27,8.27,0,0,0,.08,1.17c.29,1.79,1.28,2.6,2.54,2.43.93-.14,2.16-1,3-3.76,0,.44-.08.81-.08,1.13,0,1.83.74,2.25,1.91,2.08,1-.14,2.75-1.69,4.15-3.4a37.69,37.69,0,0,1,.64-3.8c-1.44,2.18-2.58,3.19-3.05,3.26-.21,0-.32,0-.32-.62a39,39,0,0,1,1.29-6.35,9.87,9.87,0,0,0,.3-1.94,2.21,2.21,0,0,0-2.79-1.93"/><path class="cls-5" d="M182.55,29.93c-2.11.29-4,2.89-4.48,6.83-.25,2-.73,4.76-1,6.67-.08.43-.23,1.14-.4,2a37.69,37.69,0,0,0-.64,3.8c0,.31,0,.59,0,.85,0,1.49.55,2.13,2.1,1.91,2.68-.37,7-5.49,7-7.67a.86.86,0,0,0-1-.84c-1.39,2.53-3,4.38-3.79,4.5-.24,0-.37-.06-.37-.38,0-.72,1.26-5.89,2-8.78,2-4.33,2.53-5.81,2.53-7.07,0-1.46-.71-1.94-1.85-1.78"/></g></g></g></g></svg>