<svg xmlns="http://www.w3.org/2000/svg" viewBox="0 0 1920 423.53"><defs><style>.cls-1{fill:#e1baa3;}.cls-2{fill:#c4c9c5;}.cls-3{fill:#d7cfc4;}</style></defs><title>Asset 2</title><g id="Layer_2" data-name="Layer 2"><g id="Layer_1-2" data-name="Layer 1"><path class="cls-1" d="M1920,420.53H0v-280c211-89,330.08-135.36,459-140,227.35-8.17,441,81,974,62,204.89-7.3,382.54,68.34,487,70Z"/><path class="cls-2" d="M1920,376.53H0v-87c95.34,6.88,253.51,15.51,440.32,11C832.25,291.07,940.88,147,1285,138.53c131.06-3.23,361.11,85.67,635,122Z"/><path class="cls-3" d="M1920,423.53H0v-88c115,2.15,299.12,4,522.24-1,409.43-9.25,663.4-79.33,980.76-75,118.35,1.62,205,53.69,417,76Z"/></g></g></svg>