<svg xmlns="http://www.w3.org/2000/svg" viewBox="0 0 1919.6 756.35"><defs><style>.cls-1{opacity:0.59;}.cls-2{fill:#e2ac7a;}.cls-3{fill:#c4c9c5;}.cls-4{fill:#b28071;}</style></defs><title>Asset 1</title><g id="Layer_2" data-name="Layer 2"><g id="Layer_1-2" data-name="Layer 1"><g class="cls-1"><path class="cls-2" d="M1919.6,748.06H0V211.85C217.6,110,353.71,16.77,482.6,4c227.31-22.58,419.91,57.1,955,94,203,14,370-19,482-38Z"/><path class="cls-3" d="M1919.6,626.44H0V386c95.32,19,253.46,42.86,440.23,30.4,391.85-26.15,526.17-186.61,870.22-210.06,131-8.93,335.32-.91,609.15,99.5Z"/><path class="cls-4" d="M1919.6,756.35H0V513.12C115,519.06,266.53,605.9,489.6,592c409.35-25.56,593.71-247,911-235,118.33,4.47,307.1,94.49,519,156.16Z"/></g></g></g></svg>